<?xml version="1.0" standalone="no"?>
<!DOCTYPE svg PUBLIC "-//W3C//DTD SVG 20010904//EN"
 "http://www.w3.org/TR/2001/REC-SVG-20010904/DTD/svg10.dtd">
<svg version="1.0" xmlns="http://www.w3.org/2000/svg"
 width="3550.000000pt" height="1672.000000pt" viewBox="0 0 3550.000000 1672.000000"
 preserveAspectRatio="xMidYMid meet">
<metadata>
Created by potrace 1.16, written by Peter Selinger 2001-2019
</metadata>
<g transform="translate(0.000000,1672.000000) scale(0.100000,-0.100000)"
fill="#000000" stroke="none">
<path d="M11653 15692 c-263 -196 -433 -487 -518 -887 -14 -66 -30 -132 -36
-148 -13 -31 -43 -42 -97 -34 -61 10 -152 -15 -231 -62 -78 -48 -99 -49 -148
-7 -67 56 -112 71 -214 71 -94 0 -97 -1 -192 -48 -109 -53 -91 -54 -198 10
-116 70 -218 67 -372 -11 -100 -50 -99 -50 -185 8 -69 46 -118 59 -212 54 -62
-3 -89 -10 -154 -41 -86 -41 -134 -46 -181 -21 -134 72 -185 84 -280 64 -33
-7 -94 -28 -136 -46 -88 -39 -93 -40 -134 -18 -104 56 -129 66 -193 71 -79 6
-166 -13 -253 -58 -32 -16 -66 -29 -76 -29 -10 0 -38 14 -63 30 -61 41 -130
60 -214 60 -72 -1 -137 -19 -254 -71 -53 -23 -54 -23 -85 -5 -94 56 -117 66
-174 75 -74 12 -168 0 -251 -30 -92 -34 -98 -34 -175 2 -67 32 -79 34 -172 34
-85 -1 -111 -5 -175 -29 -113 -43 -141 -44 -213 -7 -73 37 -163 55 -226 47
-25 -4 -92 -21 -149 -38 -113 -35 -110 -35 -237 12 -83 30 -193 37 -275 16
-80 -21 -178 -65 -241 -111 -115 -82 -96 -79 -459 -80 l-325 0 -65 -28 c-97
-42 -109 -45 -310 -56 -498 -30 -910 -131 -1269 -311 -565 -283 -920 -709
-1036 -1245 -10 -44 -21 -84 -26 -90 -5 -5 -9 -293 -9 -647 l0 -638 515 0 515
0 1 113 c1 61 4 355 8 652 l8 540 26 88 c30 96 63 167 110 237 128 186 368
331 681 410 118 30 324 65 332 57 3 -3 -9 -99 -26 -213 -98 -663 -84 -599
-146 -691 -70 -104 -84 -136 -104 -246 -37 -194 -64 -229 -207 -273 -49 -15
-137 -52 -198 -83 -60 -31 -134 -64 -163 -74 -122 -41 -180 -146 -169 -300 9
-109 28 -143 102 -184 l60 -33 461 0 461 0 6 348 c19 1016 152 1870 354 2272
38 75 57 101 91 125 l44 30 295 2 295 1 -7 -26 c-11 -46 -40 -86 -73 -103 -27
-14 -64 -16 -256 -12 -301 5 -306 3 -352 -160 -13 -45 -24 -85 -24 -89 0 -5
110 -8 244 -8 194 0 246 -3 255 -14 9 -10 3 -34 -23 -102 -108 -284 -195 -643
-231 -954 -8 -72 -22 -115 -42 -132 -12 -9 -60 -13 -184 -14 -146 -1 -172 -4
-201 -21 -44 -25 -58 -56 -58 -126 0 -100 -7 -97 205 -97 174 0 186 -1 206
-21 18 -18 20 -28 14 -72 -3 -29 -8 -74 -11 -101 -4 -33 -15 -58 -34 -79 l-27
-31 -166 -5 c-142 -5 -169 -9 -184 -24 -16 -16 -18 -44 -21 -288 -2 -196 0
-275 9 -285 9 -11 61 -14 279 -14 l268 0 6 148 c43 931 157 1607 356 2108 112
281 241 497 380 636 91 92 150 127 210 128 47 0 124 -38 188 -93 l53 -46 -43
-11 c-124 -31 -238 -104 -318 -203 -50 -61 -133 -215 -146 -269 l-6 -28 66 0
c36 0 66 -2 66 -5 0 -3 -24 -83 -54 -178 -85 -270 -128 -458 -181 -792 -39
-243 -34 -235 -125 -235 -95 0 -97 -5 -116 -272 -7 -97 7 -120 27 -45 6 23 16
48 21 55 11 13 96 16 115 4 9 -6 10 -39 3 -132 -8 -119 -10 -126 -36 -148 -24
-21 -34 -23 -79 -17 -57 7 -80 -6 -90 -48 -6 -31 -24 -257 -31 -419 l-7 -138
180 0 180 0 6 193 c15 430 73 988 143 1357 108 577 317 1085 552 1340 139 152
244 160 382 29 l45 -42 -47 -12 c-154 -41 -294 -155 -361 -295 -34 -72 -74
-196 -66 -205 2 -2 22 1 44 7 28 7 48 7 69 -1 34 -14 33 -23 -19 -166 -73
-202 -146 -521 -185 -820 -30 -220 -44 -242 -149 -230 -42 5 -60 3 -68 -7 -12
-15 -37 -257 -32 -308 l4 -35 24 45 c13 25 29 48 35 52 21 14 84 8 107 -10 21
-18 22 -22 11 -77 -7 -32 -12 -84 -12 -114 0 -79 -17 -101 -80 -101 -60 0 -70
14 -70 94 0 56 -16 85 -24 44 -8 -36 -34 -317 -46 -488 -6 -85 -12 -176 -15
-202 l-4 -48 184 0 185 0 0 103 c0 428 95 1255 196 1709 99 449 293 877 495
1093 126 134 216 138 342 13 l52 -52 -55 -7 c-157 -22 -246 -92 -330 -259 -27
-53 -100 -217 -100 -223 0 -1 20 -2 44 -2 49 0 76 -17 76 -47 0 -12 -22 -89
-49 -173 -76 -233 -144 -561 -182 -878 -13 -112 -24 -130 -78 -125 l-36 3 -2
55 c-3 65 -13 124 -19 118 -3 -4 -64 -452 -64 -475 0 -3 15 6 33 19 47 36 67
41 93 23 28 -18 31 -63 13 -192 -12 -89 -20 -103 -59 -103 -40 0 -49 17 -52
100 -3 68 -4 73 -15 48 -33 -74 -59 -283 -69 -567 l-7 -181 180 0 180 0 7 38
c3 20 6 80 6 133 0 177 40 706 75 1009 73 618 194 1077 380 1451 135 271 268
402 375 370 42 -12 133 -79 149 -110 9 -16 2 -22 -55 -51 -79 -39 -184 -134
-236 -214 -40 -62 -78 -168 -78 -217 0 -16 -4 -29 -10 -29 -5 0 -10 -3 -10 -7
0 -5 34 -9 76 -10 42 -1 78 -4 81 -6 2 -3 -10 -49 -27 -104 -83 -258 -133
-495 -185 -878 -19 -132 -31 -195 -43 -208 -13 -14 -28 -17 -76 -15 -52 3 -62
6 -72 27 l-12 23 -6 -28 c-31 -150 -106 -947 -106 -1126 l0 -48 198 0 199 0 7
201 c15 468 69 1035 132 1409 79 468 234 931 395 1181 151 235 240 264 380
126 l52 -51 -58 -19 c-136 -44 -205 -122 -299 -339 -58 -132 -54 -148 28 -148
81 0 84 -8 42 -147 -82 -275 -136 -538 -177 -868 -24 -198 -30 -210 -98 -202
-63 7 -73 21 -61 86 13 69 13 151 0 151 -5 0 -10 -16 -10 -35 0 -19 -11 -103
-25 -187 -14 -84 -25 -183 -25 -221 0 -62 2 -68 18 -62 56 21 104 29 120 18
15 -9 17 -27 15 -136 -2 -152 -8 -167 -66 -167 -24 0 -48 5 -55 12 -7 7 -12
42 -13 83 0 73 -12 123 -22 95 -5 -13 -36 -411 -53 -677 l-7 -103 187 0 186 0
0 88 c1 383 76 1212 145 1587 131 715 405 1325 595 1325 34 0 82 -29 138 -83
28 -28 52 -54 52 -57 0 -4 -24 -16 -54 -29 -61 -25 -126 -82 -126 -111 0 -17
7 -20 40 -20 35 0 40 -3 40 -23 0 -46 -23 -62 -91 -62 l-63 0 -57 -125 -56
-125 46 -3 c80 -6 86 -25 45 -143 -64 -187 -122 -466 -175 -839 -34 -235 -41
-255 -92 -244 -46 10 -85 -13 -96 -55 -20 -78 -69 -621 -86 -953 l-7 -128 200
0 200 0 6 93 c3 50 8 155 11 232 24 583 107 1320 191 1690 72 322 207 672 325
846 45 67 110 126 149 134 44 10 105 -22 161 -83 l51 -56 -54 -27 c-62 -31
-123 -89 -168 -158 -36 -57 -141 -306 -133 -315 4 -3 29 -6 57 -6 101 0 98 5
59 -128 -71 -244 -131 -547 -173 -881 -12 -90 -25 -172 -31 -182 -12 -24 -54
-35 -88 -23 -25 9 -26 13 -27 89 -1 44 -3 89 -4 100 -14 133 -120 -976 -120
-1252 l0 -73 200 0 200 0 0 53 c0 104 20 537 35 752 64 911 221 1640 434 2003
71 122 126 172 187 172 50 0 107 -24 146 -61 46 -43 50 -75 11 -89 -103 -38
-140 -81 -229 -267 -96 -202 -96 -200 -47 -208 78 -12 114 -26 124 -48 8 -17
-1 -71 -36 -232 -60 -271 -100 -509 -119 -713 -9 -97 -22 -174 -31 -192 -20
-39 -78 -55 -136 -40 l-40 11 7 56 c5 45 4 55 -7 51 -15 -5 -25 -75 -59 -438
-20 -223 -50 -666 -50 -757 l0 -53 214 0 214 0 6 113 c3 61 10 225 16 362 31
707 119 1404 227 1805 68 254 193 551 268 638 79 92 128 89 221 -10 l56 -62
-48 -24 c-67 -33 -102 -68 -131 -127 -13 -27 -37 -68 -53 -90 -33 -46 -95
-227 -86 -251 5 -14 16 -16 66 -11 46 5 62 3 74 -9 20 -19 20 -16 -4 -94 -63
-207 -127 -550 -165 -881 -13 -114 -26 -213 -30 -218 -3 -6 -31 -11 -61 -11
-99 0 -108 -16 -119 -215 l-6 -120 20 32 c24 38 49 53 90 53 43 0 62 -23 55
-68 -3 -20 -9 -77 -12 -127 -7 -83 -9 -90 -34 -104 -20 -12 -34 -13 -55 -5
-27 9 -28 13 -34 92 -7 87 -14 110 -23 71 -6 -27 -32 -353 -41 -509 -3 -58 -8
-133 -11 -167 l-6 -63 191 0 191 0 0 28 c1 218 39 849 71 1162 60 601 120 933
229 1260 66 198 111 303 176 407 79 127 133 151 210 94 44 -32 110 -99 103
-104 -2 -2 -25 -15 -50 -30 -90 -51 -142 -127 -220 -319 -28 -68 -52 -128 -55
-135 -3 -7 11 -13 38 -18 24 -3 58 -9 76 -12 19 -3 39 -15 47 -27 13 -20 10
-41 -30 -202 -51 -206 -95 -452 -125 -704 -28 -236 -28 -238 -51 -261 -18 -18
-28 -20 -83 -14 -46 5 -65 4 -73 -7 -17 -22 -33 -103 -33 -172 0 -76 2 -77
103 -73 48 2 61 -1 73 -18 8 -11 12 -25 10 -31 -3 -7 -8 -56 -11 -111 -9 -122
-20 -143 -78 -143 -24 0 -48 5 -55 12 -7 7 -12 37 -12 68 0 51 -20 104 -33 90
-12 -12 -47 -520 -47 -677 l0 -63 199 0 199 0 6 103 c3 56 8 170 11 252 37
964 139 1668 316 2183 92 266 204 442 280 442 9 0 27 -8 40 -18 l22 -19 -20
-106 c-17 -84 -35 -135 -91 -254 -107 -227 -113 -253 -58 -253 45 0 66 -22 66
-70 0 -22 -11 -137 -24 -257 -36 -313 -46 -442 -55 -649 -7 -173 -8 -185 -30
-208 -31 -33 -93 -42 -149 -23 -41 14 -42 14 -47 -7 -18 -80 -71 -687 -80
-916 -3 -85 -8 -165 -11 -177 l-4 -23 218 0 219 0 6 98 c4 53 7 180 7 282 0
731 89 1758 215 2495 115 672 194 886 406 1110 109 114 205 163 255 130 13 -8
24 -24 24 -33 0 -24 -36 -62 -59 -62 -37 0 -110 -33 -151 -68 -54 -45 -105
-124 -175 -267 -132 -271 -198 -545 -281 -1175 -47 -358 -49 -376 -35 -385 7
-3 41 7 77 25 87 42 139 43 172 4 28 -33 29 -3 -7 -509 -32 -450 -60 -1159
-61 -1567 l0 -78 85 0 85 0 0 173 c1 1096 116 2429 271 3127 78 352 191 669
273 767 49 58 113 66 184 23 21 -13 32 -27 32 -42 0 -37 -14 -48 -68 -57 -72
-11 -94 -29 -139 -118 -84 -163 -133 -325 -203 -673 -85 -420 -143 -854 -155
-1155 l-5 -140 19 86 c22 99 42 142 76 165 34 22 104 28 135 12 51 -27 52 -38
30 -399 -31 -528 -40 -790 -47 -1296 l-6 -473 80 0 81 0 6 113 c3 61 8 294 11
517 12 956 73 1825 181 2590 44 313 84 506 139 678 46 144 76 190 134 207 13
4 325 4 692 0 648 -7 669 -8 669 -27 0 -37 -29 -88 -62 -108 -33 -21 -36 -21
-649 -14 -560 6 -618 5 -647 -10 -34 -18 -62 -61 -62 -98 0 -19 -22 -110 -46
-190 -5 -17 31 -18 668 -18 l674 0 -32 -272 c-105 -881 -158 -1760 -171 -2830
l-6 -538 125 0 125 0 6 908 c6 1025 21 1438 73 2002 49 541 136 936 224 1015
l22 20 28 -32 c15 -17 37 -56 48 -86 25 -65 64 -255 57 -268 -3 -5 -24 -13
-47 -19 -57 -16 -85 -51 -113 -144 -89 -294 -141 -759 -190 -1706 -21 -417
-55 -1403 -55 -1627 l0 -63 100 0 100 0 0 323 c0 341 13 867 30 1257 20 455
73 1158 100 1320 32 200 64 358 75 381 25 47 47 50 372 47 286 -3 303 -4 330
-24 15 -11 36 -37 46 -57 18 -35 17 -40 -3 -173 -79 -516 -116 -1240 -136
-2611 l-7 -463 100 0 100 0 6 288 c7 379 41 669 122 1047 58 269 178 682 226
777 36 71 -9 68 841 62 419 -3 779 -10 799 -15 77 -19 111 -83 208 -383 147
-452 217 -907 228 -1468 l6 -308 122 0 122 0 6 388 c8 438 20 653 41 703 18
43 54 82 97 105 72 39 287 11 438 -57 67 -31 91 -35 91 -19 0 6 -4 10 -10 10
-5 0 -10 18 -10 40 0 59 -29 107 -113 186 -112 107 -221 155 -411 179 -32 4
-57 15 -73 31 l-24 24 4 308 c5 344 8 361 72 388 45 19 159 18 245 -2 38 -8
108 -35 156 -60 48 -24 100 -44 116 -44 26 0 29 3 23 23 -13 44 -76 128 -123
162 -56 42 -255 109 -351 120 -36 3 -77 13 -92 21 -87 45 -38 229 76 284 43
21 51 21 108 10 133 -25 209 -78 305 -212 30 -43 59 -78 62 -78 13 0 19 87 10
141 -23 139 -100 271 -202 346 -62 45 -182 87 -296 104 -48 6 -93 17 -100 22
-7 6 -12 24 -10 41 l3 31 87 -2 c161 -2 312 -66 422 -177 104 -106 168 -240
204 -430 19 -101 20 -380 6 -1868 l-6 -718 89 0 90 0 6 572 c4 314 7 795 7
1069 0 291 4 508 10 523 5 14 19 30 30 36 21 11 1722 3 3640 -18 l615 -7 172
-92 c95 -50 201 -103 235 -116 170 -67 332 -34 476 97 79 71 119 89 198 89 85
1 146 -31 204 -107 115 -149 127 -161 185 -191 52 -27 68 -30 149 -30 138 0
165 18 346 225 70 81 120 105 203 96 32 -3 78 -14 102 -25 42 -19 57 -34 139
-148 59 -81 131 -137 197 -153 124 -30 267 20 347 120 143 182 181 207 289
197 101 -10 142 -33 207 -120 125 -167 204 -213 350 -205 119 7 160 31 257
153 102 128 162 169 249 169 78 0 124 -28 217 -131 165 -184 187 -198 303
-198 103 1 131 17 228 133 23 28 64 64 90 79 41 25 57 28 127 27 69 0 101 -7
235 -52 85 -29 205 -77 266 -106 253 -122 348 -225 348 -376 -1 -83 -16 -330
-20 -330 -2 0 -49 18 -104 40 -140 56 -304 104 -440 130 -63 11 -131 25 -151
31 -55 14 -96 11 -103 -7 -3 -9 -6 -38 -6 -66 0 -41 5 -54 28 -77 24 -24 41
-29 152 -44 216 -31 525 -117 580 -164 60 -50 63 -64 71 -343 4 -140 12 -323
19 -407 11 -163 8 -198 -20 -213 -11 -6 -155 -10 -352 -10 -336 0 -374 -4
-386 -37 -3 -10 108 -13 532 -13 l536 0 0 105 c0 58 -5 195 -11 305 -12 211
-9 230 31 230 34 0 44 -29 48 -131 3 -55 8 -99 12 -99 20 0 17 356 -4 377 -2
2 -20 -4 -41 -14 -37 -18 -37 -17 -56 6 -10 13 -19 40 -20 60 0 20 -10 113
-22 208 l-22 172 27 30 c46 51 38 87 -39 174 -38 43 -42 73 -12 82 41 13 100
-70 133 -185 17 -62 58 -291 81 -453 23 -167 43 -432 51 -659 l7 -208 78 0 79
0 0 228 c0 175 3 232 13 246 13 18 42 19 614 17 667 -2 613 -8 613 64 0 68 31
65 -613 65 -622 0 -623 0 -638 50 -3 14 -12 89 -18 168 -14 164 -8 186 51 197
18 3 254 2 523 -2 486 -8 490 -8 527 -31 41 -26 78 -91 78 -140 0 -46 15 -39
30 13 16 57 8 158 -16 208 -17 35 -17 38 -1 55 17 16 20 16 64 -8 60 -32 69
-54 19 -45 l-36 7 0 -38 c0 -50 29 -96 73 -117 19 -9 39 -17 44 -17 27 0 49
-50 79 -183 18 -78 30 -145 26 -149 -4 -4 -27 -8 -52 -10 l-45 -3 0 -44 c0
-35 5 -47 25 -61 33 -24 94 -32 116 -16 16 12 16 24 6 152 -6 76 -14 185 -18
242 l-7 103 34 -20 c32 -20 48 -21 347 -21 364 0 337 8 370 -116 42 -158 41
-206 -6 -226 -17 -8 -131 -14 -322 -18 l-295 -5 -3 -41 c-6 -80 -25 -77 452
-71 365 4 435 7 529 25 59 11 114 25 122 32 19 16 20 94 1 109 -15 13 -112 -3
-220 -34 -67 -20 -129 -19 -155 3 -12 9 -26 35 -31 57 -9 40 -5 264 6 297 5
18 13 21 163 58 65 16 98 21 110 14 9 -6 30 -38 47 -72 l31 -62 12 27 c23 50
24 141 3 237 -11 49 -18 94 -15 102 7 18 27 20 211 14 172 -5 185 -9 180 -55
-3 -19 -11 -20 -166 -21 -174 0 -188 -4 -177 -49 2 -11 5 -28 5 -37 0 -10 9
-27 20 -38 18 -18 33 -20 186 -20 l166 0 27 -28 c23 -22 31 -45 45 -121 10
-52 27 -124 39 -160 l22 -66 3 55 c4 67 -14 302 -33 419 -8 47 -13 86 -12 87
2 1 396 -109 514 -145 99 -30 143 -69 168 -151 8 -24 7 -24 -28 7 -80 71 -162
105 -363 153 -67 16 -146 38 -175 50 -30 11 -58 20 -63 20 -12 0 1 -84 18
-118 20 -39 39 -47 237 -96 213 -52 291 -88 374 -171 72 -72 117 -159 139
-267 26 -124 25 -125 -36 -77 -91 73 -164 96 -423 140 -192 32 -179 34 -183
-28 -3 -47 0 -54 20 -63 13 -6 114 -26 225 -45 111 -19 221 -42 245 -52 147
-58 229 -175 215 -310 l-6 -53 85 0 84 0 0 188 0 188 -59 239 c-49 195 -69
257 -110 342 -52 108 -121 193 -189 235 -42 26 -522 172 -652 198 -244 48
-527 64 -660 36 -36 -8 -118 -35 -182 -60 -211 -84 -322 -97 -734 -89 l-275 6
-67 40 c-36 22 -93 51 -126 64 -125 51 -162 54 -731 57 -396 3 -537 7 -557 16
-16 8 -39 35 -57 69 -59 110 -123 154 -226 154 -70 0 -79 5 -110 66 -56 111
-167 198 -390 307 -294 143 -592 207 -743 158 -65 -21 -136 -76 -190 -147 -24
-31 -57 -64 -73 -73 -27 -13 -32 -13 -60 3 -17 10 -57 52 -89 94 -137 177
-249 235 -440 227 -141 -5 -190 -32 -282 -153 -123 -163 -193 -209 -256 -170
-33 21 -51 42 -107 125 -24 36 -59 79 -77 97 -84 81 -220 114 -400 97 -129
-13 -142 -21 -242 -153 -98 -129 -135 -161 -187 -161 -70 0 -120 39 -174 135
-39 70 -115 140 -183 167 -50 20 -75 23 -207 23 -203 0 -206 -2 -350 -189 -75
-97 -113 -126 -163 -126 -70 0 -114 35 -174 140 -33 57 -92 116 -140 141 -62
32 -127 41 -293 40 l-160 0 -25 -32 c-105 -135 -194 -196 -275 -186 -47 5 -89
24 -218 99 -43 25 -126 62 -185 81 -215 71 -154 68 -1517 78 -676 5 -1603 13
-2058 17 l-829 7 -23 27 c-16 19 -25 45 -29 85 -14 131 -28 203 -60 295 -50
145 -107 238 -211 344 -78 78 -104 98 -185 137 -112 54 -180 73 -315 87 -153
16 -156 18 -200 137 -52 138 -158 306 -287 458 -104 121 -9 110 -948 113 -599
2 -826 0 -855 -9 -30 -8 -68 -40 -160 -133 -138 -138 -230 -257 -305 -393 -29
-51 -56 -96 -61 -98 -4 -3 -34 7 -66 23 -91 46 -152 54 -341 47 -186 -7 -200
-4 -238 53 -12 18 -25 56 -29 85 -29 226 -119 479 -197 557 -63 63 -59 63
-541 66 -276 2 -444 7 -456 14 -13 6 -158 10 -401 10 l-381 0 -37 -25 c-20
-14 -49 -25 -64 -25 -15 0 -53 11 -84 25 -56 25 -60 25 -324 25 l-268 0 -79
-58z m5606 -348 c109 -14 267 -241 333 -480 18 -67 21 -105 21 -244 0 -145 -3
-177 -25 -261 -34 -124 -77 -226 -137 -325 -62 -100 -168 -224 -218 -255 l-38
-24 -825 3 c-934 4 -880 -1 -937 83 -46 67 -90 160 -123 257 -83 250 -61 520
63 776 119 244 274 411 432 465 58 19 79 19 735 15 371 -3 695 -7 719 -10z
m-5690 -1124 c-43 -302 -58 -385 -72 -401 -14 -15 -31 -19 -82 -19 -78 0 -113
12 -120 42 -7 28 51 267 95 393 51 148 125 288 176 335 25 23 48 39 51 36 3
-3 -19 -177 -48 -386z m527 54 c-20 -181 -38 -352 -41 -380 -7 -61 -31 -90
-80 -100 -40 -7 -91 1 -112 17 -20 17 -16 49 21 211 38 161 97 347 143 449 27
59 90 145 100 136 2 -2 -12 -152 -31 -333z m-1486 -104 c0 -23 -34 -96 -52
-112 -24 -21 -118 -26 -118 -6 0 21 54 91 85 110 32 19 85 24 85 8z m7050
-840 c0 -567 -3 -820 -11 -820 -18 0 -38 66 -59 192 -39 244 -150 635 -245
859 -19 46 -35 89 -35 95 0 6 29 40 63 75 89 90 176 211 233 323 27 53 50 96
52 96 1 0 2 -369 2 -820z m-14365 484 c9 -4 -47 -23 -132 -44 -306 -79 -500
-181 -696 -369 -173 -167 -275 -341 -313 -539 -9 -47 -19 -257 -30 -605 -18
-574 -23 -669 -40 -674 -27 -9 -54 827 -35 1092 14 202 38 301 106 440 159
328 464 563 866 665 128 33 240 47 274 34z m27497 -1115 c15 -6 31 -23 36 -39
l10 -27 -536 3 c-295 2 -544 7 -553 9 -22 7 -31 32 -20 53 8 16 51 17 523 14
338 -1 522 -6 540 -13z m1544 -55 c15 -22 15 -27 3 -39 -19 -18 -255 -89 -274
-81 -8 3 -15 16 -15 29 0 22 11 29 98 61 53 20 106 41 117 46 34 15 54 11 71
-16z m-434 -111 c5 -2 13 -13 18 -24 11 -19 4 -19 -324 -19 -326 0 -336 1
-346 20 -6 11 -8 25 -4 31 4 8 103 9 328 4 176 -4 324 -9 328 -12z m-25234
-196 c13 -15 5 -243 -9 -269 -10 -18 -78 -33 -109 -23 -33 11 -38 34 -29 149
11 138 21 156 88 156 27 0 53 -6 59 -13z m1146 -9 c12 -17 16 -50 16 -145 0
-119 -1 -123 -25 -139 -20 -13 -30 -14 -59 -4 -19 6 -36 16 -38 23 -2 7 -3 64
-2 127 2 110 3 115 29 137 33 29 60 29 79 1z m621 -1 c17 -13 17 -21 5 -143
-6 -71 -17 -135 -22 -141 -12 -15 -66 -17 -86 -4 -11 6 -12 35 -6 139 7 133
11 145 49 155 34 8 41 7 60 -6z m638 -18 c11 -14 15 -29 11 -43 -4 -12 -8 -61
-9 -110 -2 -85 -4 -91 -30 -114 -24 -20 -36 -23 -72 -19 -65 7 -76 21 -67 81
4 28 6 86 6 128 -1 48 3 80 11 86 35 29 123 24 150 -9z m1753 -4 c20 -13 21
-23 19 -135 -3 -153 -10 -164 -102 -158 -35 2 -68 9 -74 15 -7 7 -11 56 -10
134 2 150 7 159 90 159 33 0 65 -6 77 -15z m-7662 -365 c7 -38 -4 -123 -17
-132 -16 -10 -308 -19 -352 -10 l-40 7 155 68 c85 37 166 73 180 81 43 24 67
20 74 -14z"/>
<path d="M16422 15253 c3 -15 36 -21 238 -45 129 -14 262 -34 295 -43 102 -28
193 -82 276 -165 133 -131 197 -299 221 -573 6 -76 15 -134 19 -130 4 4 14 35
23 68 72 289 29 575 -124 810 -27 40 -58 78 -69 84 -13 7 -164 11 -451 11
-403 0 -431 -1 -428 -17z"/>
<path d="M15527 14993 c-140 -233 -203 -470 -178 -679 14 -119 59 -259 115
-355 68 -120 9 -109 639 -116 l547 -6 0 22 c0 11 -4 21 -10 21 -50 0 -552 66
-645 85 -126 26 -285 71 -285 82 0 3 151 4 336 0 185 -3 332 -2 328 3 -5 4
-144 31 -309 60 -445 78 -507 97 -557 177 -21 34 -23 49 -23 158 1 144 30 276
101 453 25 62 44 121 42 130 -2 11 -15 18 -35 20 -28 3 -34 -2 -66 -55z"/>
<path d="M12483 14874 c-16 -8 -37 -28 -47 -45 -18 -31 -36 -159 -22 -159 4 0
28 16 53 35 25 19 60 37 78 41 18 3 260 4 537 2 535 -4 537 -5 590 -55 14 -14
31 -22 37 -19 14 9 41 107 41 150 0 23 -6 38 -17 44 -10 5 -289 12 -619 15
-506 4 -606 2 -631 -9z"/>
<path d="M14424 14690 c-30 -12 -30 -13 -54 -128 -30 -152 -50 -140 251 -144
294 -4 283 1 277 -107 -6 -101 -4 -100 -261 -93 -118 2 -230 2 -251 -2 -52
-10 -76 -37 -76 -86 l0 -40 228 0 c125 0 256 -3 292 -6 94 -8 97 -5 110 146 6
69 22 180 36 247 13 67 24 139 24 158 0 60 -27 65 -312 64 -134 0 -253 -4
-264 -9z"/>
<path d="M12430 14200 c-41 -10 -66 -38 -79 -88 -12 -44 -60 -395 -55 -401 2
-2 21 11 43 28 55 44 134 78 214 92 48 8 189 10 465 7 379 -4 399 -5 444 -25
34 -16 56 -35 77 -68 l30 -47 14 24 c15 25 51 305 52 403 0 53 -2 61 -25 72
-19 10 -150 13 -585 12 -308 -1 -576 -5 -595 -9z"/>
<path d="M18875 13591 c-11 -5 -29 -19 -40 -31 -19 -21 -20 -34 -17 -194 3
-165 4 -172 26 -192 22 -20 38 -21 311 -27 159 -4 624 -7 1034 -7 410 0 964
-5 1231 -11 352 -7 581 -7 835 1 471 16 702 1 940 -61 44 -12 90 -23 101 -26
20 -4 22 0 26 69 8 124 23 126 37 7 46 -410 72 -885 74 -1328 l2 -341 488 0
487 0 0 24 c0 45 -20 50 -201 51 -122 1 -172 4 -181 13 -10 10 -15 117 -19
440 -4 235 -12 495 -18 577 l-12 150 23 19 c21 17 34 18 135 12 123 -7 186
-22 231 -55 17 -11 33 -21 37 -21 16 0 -2 148 -21 181 -34 59 -78 73 -257 79
-117 4 -160 8 -166 19 -13 20 -10 145 3 153 17 12 229 9 286 -3 27 -6 72 -26
99 -44 48 -33 49 -34 55 -12 3 12 6 66 6 119 0 141 -21 190 -124 295 -69 69
-87 82 -123 88 -64 10 -94 -1 -200 -72 -116 -77 -169 -105 -242 -127 -132 -39
-261 -9 -504 118 -78 41 -167 82 -197 91 -49 14 -205 17 -1470 25 -1587 10
-2370 18 -2540 25 -63 3 -124 1 -135 -4z"/>
<path d="M16020 13536 c0 -2 28 -13 63 -26 34 -12 107 -45 161 -73 356 -181
583 -501 796 -1120 22 -61 25 -66 39 -52 10 10 15 31 14 60 -3 94 -94 410
-174 610 l-29 70 46 -50 c118 -132 256 -542 334 -995 22 -131 70 -476 70 -507
0 -2 32 -3 72 -3 l71 0 -6 258 c-15 595 -96 1101 -251 1565 -64 189 -80 224
-118 247 -32 19 -50 20 -560 20 -291 0 -528 -2 -528 -4z"/>
<path d="M25151 13523 c-24 -5 -87 -65 -184 -176 -45 -52 -75 -75 -134 -104
-72 -36 -81 -37 -167 -36 -61 0 -114 8 -160 22 -38 11 -71 20 -72 18 -1 -1 6
-76 16 -167 46 -413 70 -850 73 -1296 l2 -334 478 0 c505 0 519 1 434 43 -26
13 -70 20 -164 24 -88 4 -133 10 -144 19 -14 12 -17 61 -23 347 -4 182 -11
391 -16 462 -24 336 -24 328 -2 355 19 24 25 25 114 23 121 -3 185 -17 242
-53 l46 -30 0 71 c0 111 -36 166 -123 190 -22 6 -96 11 -164 12 -79 0 -130 5
-140 12 -11 8 -18 32 -21 72 -6 92 1 96 162 91 142 -5 189 -18 239 -66 41 -39
48 -19 45 113 -3 97 -6 117 -32 168 -30 63 -118 165 -170 196 -34 21 -96 32
-135 24z"/>
<path d="M26193 13500 c-18 -10 -62 -57 -98 -103 -135 -173 -264 -223 -468
-182 -64 13 -92 14 -99 7 -8 -8 -5 -67 10 -209 44 -397 72 -925 72 -1340 l0
-223 475 0 c261 0 475 4 475 8 0 5 -12 19 -26 33 -25 23 -29 24 -169 21 -121
-3 -145 -1 -159 13 -14 14 -16 45 -16 208 0 218 -14 578 -31 806 -14 186 -16
181 105 181 108 0 199 -17 242 -46 19 -13 37 -24 39 -24 3 0 5 34 5 76 0 142
-35 167 -247 172 -166 4 -171 7 -180 97 -8 80 0 85 142 85 126 0 197 -16 245
-56 17 -15 33 -24 36 -21 3 2 8 36 11 75 14 170 -60 326 -196 414 -55 34 -120
38 -168 8z"/>
<path d="M27259 13486 c-20 -14 -57 -54 -83 -90 -82 -115 -174 -176 -298 -195
-69 -12 -189 -2 -226 18 -29 16 -52 4 -52 -28 0 -15 11 -157 25 -316 36 -430
45 -600 52 -1032 l6 -393 469 0 c281 0 468 4 468 9 0 5 -12 19 -27 31 -27 21
-34 22 -164 15 -119 -6 -137 -5 -152 10 -15 14 -17 42 -17 208 0 225 -17 685
-30 841 -13 155 -19 149 143 144 125 -3 135 -5 190 -35 l57 -31 0 66 c0 44 -7
81 -19 108 -27 59 -67 73 -243 79 -78 3 -145 8 -149 12 -11 11 -15 135 -6 151
6 8 44 12 135 12 139 0 182 -8 235 -44 19 -13 38 -22 41 -18 3 3 6 57 6 121 0
132 -8 157 -83 257 -67 91 -106 117 -181 122 -52 3 -66 0 -97 -22z"/>
<path d="M28243 13419 c-35 -10 -85 -55 -145 -131 -82 -102 -221 -130 -377
-75 l-73 26 6 -57 c57 -514 86 -998 86 -1459 l0 -273 290 0 290 0 0 153 c0
217 -18 693 -35 957 -16 238 -51 625 -62 675 -5 26 -4 28 11 16 9 -7 16 -27
16 -44 0 -90 60 -172 147 -201 27 -9 103 -25 168 -36 138 -24 273 -67 438
-140 65 -29 119 -51 121 -49 9 9 -14 180 -30 225 -9 27 -29 68 -45 91 -69 100
-373 251 -634 314 -87 21 -123 22 -172 8z"/>
<path d="M15477 13269 c-27 -43 -95 -299 -146 -554 -70 -351 -121 -816 -121
-1097 l0 -168 180 0 c115 0 180 4 180 10 0 6 -7 52 -15 103 -53 330 -71 726
-53 1152 14 336 14 536 0 562 -8 14 -11 13 -25 -8z"/>
<path d="M14250 13090 c-17 -17 -20 -34 -20 -129 0 -92 3 -112 19 -132 l19
-24 276 0 c343 0 321 -11 321 160 0 77 -4 118 -12 126 -9 9 -89 13 -298 15
-273 3 -287 2 -305 -16z"/>
<path d="M18841 12951 c-17 -17 -21 -34 -21 -80 0 -37 5 -65 14 -73 11 -11 78
-14 337 -16 2862 -16 3758 -24 3844 -33 60 -6 135 -22 186 -40 48 -16 94 -27
102 -23 32 12 39 130 8 158 -10 9 -65 34 -122 54 l-104 37 -1055 3 c-580 1
-1057 6 -1060 11 -3 4 -478 11 -1057 15 l-1052 7 -20 -20z"/>
<path d="M12228 12253 c-4 -216 -4 -214 22 -235 22 -18 50 -18 594 -16 518 3
574 5 602 20 43 24 54 61 54 188 0 91 -3 109 -19 124 -17 16 -19 14 -45 -23
-38 -54 -89 -87 -164 -106 -92 -24 -741 -17 -817 8 -73 24 -138 69 -184 127
l-41 52 -2 -139z"/>
<path d="M32643 12045 c-16 -12 -8 -88 11 -104 6 -5 87 -11 180 -12 156 -3
169 -2 182 16 15 20 18 72 6 92 -9 15 -359 22 -379 8z"/>
<path d="M15673 11795 c3 -77 11 -186 18 -242 l12 -103 59 0 c52 0 59 2 54 18
-3 9 -35 116 -72 237 -36 121 -68 222 -71 225 -3 3 -3 -58 0 -135z"/>
<path d="M5110 11783 c-6 -27 -14 -112 -17 -190 l-6 -143 32 0 c25 0 32 5 38
28 20 76 -1 352 -27 352 -5 0 -14 -21 -20 -47z"/>
<path d="M6936 11781 c-21 -72 -38 -204 -34 -271 3 -53 4 -55 34 -58 37 -4 42
5 51 89 6 56 -11 232 -27 273 -6 18 -10 12 -24 -33z"/>
<path d="M5747 11813 c-19 -31 -37 -150 -37 -250 l0 -113 34 0 c34 0 35 2 42
46 16 109 -14 357 -39 317z"/>
<path d="M9886 11739 c-9 -39 -19 -120 -23 -180 l-6 -109 40 0 40 0 6 56 c8
82 -19 304 -38 304 -2 0 -11 -32 -19 -71z"/>
<path d="M10466 11723 c-9 -43 -20 -122 -23 -175 l-6 -98 40 0 41 0 7 56 c4
31 4 79 0 107 -13 110 -27 187 -34 187 -5 0 -16 -35 -25 -77z"/>
<path d="M4505 11738 c-18 -58 -32 -250 -21 -293 5 -21 12 -26 33 -23 35 4 43
34 46 163 1 95 -14 188 -34 201 -4 2 -15 -19 -24 -48z"/>
<path d="M6321 11752 c-22 -79 -31 -147 -31 -224 l0 -79 38 3 37 3 3 95 c4 95
-12 225 -28 235 -5 3 -14 -12 -19 -33z"/>
<path d="M8111 11723 c-21 -76 -31 -146 -31 -209 l0 -64 34 0 c22 0 36 6 40
16 17 45 -1 263 -24 288 -5 5 -13 -9 -19 -31z"/>
<path d="M7502 11668 c-20 -128 -23 -165 -16 -192 5 -22 12 -26 40 -26 l34 0
0 70 c0 70 -27 220 -40 220 -4 0 -12 -33 -18 -72z"/>
<path d="M8706 11703 c-12 -72 -19 -201 -12 -227 5 -22 12 -26 40 -26 l34 0 7
65 c7 66 -2 124 -30 192 -18 43 -31 42 -39 -4z"/>
<path d="M9306 11679 c-3 -18 -9 -76 -13 -130 l-6 -99 41 0 c33 0 42 4 48 23
9 27 8 212 -1 227 -3 5 -19 10 -34 10 -24 0 -30 -5 -35 -31z"/>
<path d="M13469 11639 c-7 -18 -24 -45 -37 -61 -51 -61 -41 -60 -529 -58 -255
0 -465 5 -490 11 -57 12 -113 41 -158 80 l-35 31 0 -96 0 -96 635 0 635 0 0
110 c0 61 -2 110 -4 110 -2 0 -9 -14 -17 -31z"/>
<path d="M1450 9890 l0 -800 2873 0 c1655 -1 2927 -5 3002 -10 153 -11 224
-27 323 -76 126 -61 208 -166 250 -317 16 -57 17 -166 17 -1432 0 -1266 -1
-1375 -17 -1432 -42 -151 -124 -256 -250 -317 -98 -48 -169 -65 -318 -76 -72
-5 -979 -10 -2122 -10 l-1998 0 0 1370 0 1370 -880 0 -880 0 0 -2170 0 -2170
3013 0 c2625 0 3029 2 3141 15 606 71 1120 321 1526 741 308 319 488 691 544
1122 14 108 16 303 16 1557 0 1254 -2 1449 -16 1557 -56 431 -236 803 -544
1122 -406 420 -920 670 -1526 741 -112 13 -516 15 -3141 15 l-3013 0 0 -800z" fill="#cc0000"/>
<path d="M13350 7255 l0 -3435 880 0 880 0 0 1320 0 1320 2245 0 2245 0 0
-1320 0 -1320 885 0 885 0 0 3435 0 3435 -885 0 -885 0 0 -1315 0 -1315 -2245
0 -2245 0 0 1315 0 1315 -880 0 -880 0 0 -3435z" fill="#cc0000"/>
<path d="M25040 7255 l0 -3435 880 0 880 0 0 1120 0 1120 2854 0 c2498 0 2869
2 2971 15 600 79 1069 385 1440 940 195 292 310 603 367 1000 21 143 17 600
-6 750 -57 374 -179 693 -381 995 -359 536 -826 837 -1420 915 -102 13 -566
15 -3851 15 l-3734 0 0 -3435z m7315 1825 c120 -18 192 -76 251 -205 111 -241
110 -774 -2 -1011 -54 -115 -134 -177 -249 -194 -46 -6 -1029 -10 -2812 -10
l-2743 0 0 715 0 715 2743 0 c1783 0 2766 -4 2812 -10z" fill="#cc0000"/>
<path d="M8990 2934 c-14 -2 -52 -9 -85 -15 -306 -53 -565 -256 -685 -538
-111 -261 -103 -597 20 -856 118 -248 341 -417 627 -474 124 -26 343 -28 478
-6 274 44 481 180 602 394 37 66 83 180 83 206 0 13 -35 15 -224 15 l-225 0
-33 -62 c-79 -150 -204 -217 -400 -218 -158 0 -259 39 -358 139 -109 109 -157
234 -167 431 -10 207 41 373 153 491 69 71 147 113 259 136 68 14 94 14 175 4
163 -20 274 -89 339 -211 l32 -60 225 0 224 0 0 25 c0 89 -93 259 -195 360
-110 108 -252 182 -425 220 -72 16 -363 29 -420 19z"/>
<path d="M15828 2926 c-321 -57 -577 -248 -707 -528 -66 -141 -85 -238 -85
-418 0 -125 5 -172 22 -243 112 -453 453 -707 950 -707 310 0 533 79 719 253
171 162 257 345 285 605 18 175 -13 370 -86 528 -115 248 -324 418 -605 491
-120 31 -369 41 -493 19z m343 -362 c137 -41 231 -120 292 -244 56 -115 71
-185 71 -335 0 -148 -14 -217 -69 -333 -91 -193 -287 -295 -508 -263 -174 24
-301 117 -376 274 -56 118 -66 170 -65 337 0 129 3 154 27 225 57 172 165 288
315 336 75 24 237 25 313 3z"/>
<path d="M32795 2929 c-181 -23 -365 -102 -463 -198 -107 -105 -147 -217 -140
-387 3 -84 8 -109 34 -164 88 -188 280 -281 772 -375 305 -58 405 -119 404
-247 -1 -124 -98 -183 -317 -194 -248 -12 -428 62 -495 205 l-23 51 -229 0
-228 0 6 -27 c55 -251 209 -419 461 -503 147 -49 268 -63 483 -57 206 6 313
24 445 76 251 97 381 297 362 553 -23 289 -227 434 -757 539 -302 60 -407 97
-443 158 -38 64 -11 149 61 198 107 71 412 59 521 -21 39 -29 77 -82 87 -120
l6 -26 230 0 230 0 -7 42 c-55 321 -368 512 -830 507 -55 -1 -131 -5 -170 -10z"/>
<path d="M1240 1985 l0 -915 483 0 c431 0 492 2 572 19 354 73 622 324 705
661 31 122 38 327 16 444 -60 317 -269 554 -576 654 -144 47 -212 52 -721 52
l-479 0 0 -915z m915 550 c257 -54 394 -239 395 -532 0 -246 -92 -438 -250
-518 -102 -52 -183 -65 -402 -65 l-198 0 0 565 0 565 193 0 c130 0 215 -5 262
-15z"/>
<path d="M3380 1985 l0 -915 230 0 230 0 0 915 0 915 -230 0 -230 0 0 -915z"/>
<path d="M4310 1986 l0 -916 220 0 220 0 0 350 0 350 218 0 c320 0 397 -19
449 -108 27 -45 27 -50 34 -277 3 -126 12 -249 18 -272 l12 -43 235 0 c221 0
236 1 229 17 -4 10 -11 135 -16 278 -4 143 -13 280 -19 305 -27 107 -101 204
-194 252 l-39 20 64 34 c114 61 192 159 218 275 18 75 13 210 -9 281 -51 167
-175 277 -380 339 -74 23 -84 23 -667 27 l-593 3 0 -915z m1025 559 c135 -35
201 -147 164 -278 -14 -53 -60 -100 -121 -128 -51 -23 -64 -24 -340 -27 l-288
-4 0 226 0 226 263 0 c204 0 276 -3 322 -15z"/>
<path d="M6340 1985 l0 -915 770 0 769 0 6 33 c8 49 45 307 45 318 0 5 -217 9
-565 9 l-565 0 0 205 0 205 510 0 510 0 0 180 0 180 -510 0 -510 0 0 170 0
170 535 0 535 0 0 180 0 180 -765 0 -765 0 0 -915z"/>
<path d="M10200 2720 l0 -180 325 0 325 0 0 -735 0 -735 225 0 225 0 0 735 0
735 320 0 320 0 0 180 0 180 -870 0 -870 0 0 -180z"/>
<path d="M12910 1985 l0 -915 230 0 230 0 0 390 0 390 415 0 415 0 0 -390 0
-390 225 0 225 0 0 915 0 915 -225 0 -225 0 0 -340 0 -340 -415 0 -415 0 0
340 0 340 -230 0 -230 0 0 -915z"/>
<path d="M17370 1985 l0 -915 211 0 211 0 -4 678 -4 679 56 -96 c74 -128 239
-392 542 -868 l250 -393 254 0 254 0 0 915 0 915 -211 0 -211 0 3 -625 c2
-343 1 -621 -2 -617 -3 4 -31 51 -63 104 -32 53 -212 330 -401 615 l-343 518
-271 3 -271 2 0 -915z"/>
<path d="M19600 1985 l0 -915 483 0 c431 0 492 2 572 19 354 73 622 324 705
661 31 122 38 327 16 444 -60 317 -269 554 -576 654 -144 47 -212 52 -721 52
l-479 0 0 -915z m915 550 c257 -54 394 -239 395 -532 0 -246 -92 -438 -250
-518 -102 -52 -183 -65 -402 -65 l-198 0 0 565 0 565 193 0 c130 0 215 -5 262
-15z"/>
<path d="M21855 2029 c-192 -479 -358 -891 -367 -915 l-18 -44 236 2 236 3 77
200 76 200 404 0 403 0 82 -200 82 -200 248 -3 c197 -2 247 0 243 10 -3 7
-177 419 -387 916 l-383 902 -291 0 -291 0 -350 -871z m813 76 l100 -250 -271
-3 c-148 -1 -271 -1 -273 1 -1 1 35 104 80 227 46 124 105 289 131 368 l48
142 43 -117 c24 -65 87 -230 142 -368z"/>
<path d="M24510 1986 l0 -916 230 0 230 0 0 324 0 324 333 4 c301 4 340 7 412
26 243 66 396 210 446 422 20 85 15 252 -10 331 -56 178 -190 299 -406 366
l-90 27 -572 4 -573 3 0 -915z m1035 549 c115 -30 175 -107 175 -225 0 -80
-24 -137 -73 -175 -67 -51 -109 -57 -404 -62 l-273 -5 0 241 0 241 258 0 c200
0 271 -3 317 -15z"/>
<path d="M26465 2029 c-192 -479 -358 -891 -367 -915 l-18 -44 236 2 236 3 77
200 76 200 404 0 403 0 82 -200 82 -200 248 -3 c197 -2 247 0 243 10 -3 7
-177 419 -387 916 l-383 902 -291 0 -291 0 -350 -871z m813 76 l100 -250 -271
-3 c-148 -1 -271 -1 -273 1 -1 1 35 104 80 227 46 124 105 289 131 368 l48
142 43 -117 c24 -65 87 -230 142 -368z"/>
<path d="M28410 1986 l0 -916 220 0 220 0 0 350 0 350 218 0 c320 0 397 -19
449 -108 27 -45 27 -50 34 -277 3 -126 12 -249 18 -272 l12 -43 235 0 c221 0
236 1 229 17 -4 10 -11 135 -16 278 -4 143 -13 280 -19 305 -27 107 -101 204
-194 252 l-39 20 64 34 c114 61 192 159 218 275 18 75 13 210 -9 281 -51 167
-175 277 -380 339 -74 23 -84 23 -667 27 l-593 3 0 -915z m1025 559 c135 -35
201 -147 164 -278 -14 -53 -60 -100 -121 -128 -51 -23 -64 -24 -340 -27 l-288
-4 0 226 0 226 263 0 c204 0 276 -3 322 -15z"/>
<path d="M30250 2720 l0 -180 325 0 325 0 0 -735 0 -735 225 0 225 0 0 735 0
735 320 0 320 0 0 180 0 180 -870 0 -870 0 0 -180z"/>
</g>
</svg>
