<?xml version="1.0" standalone="no"?>
<!DOCTYPE svg PUBLIC "-//W3C//DTD SVG 20010904//EN"
 "http://www.w3.org/TR/2001/REC-SVG-20010904/DTD/svg10.dtd">
<svg version="1.0" xmlns="http://www.w3.org/2000/svg"
 width="3540.000000pt" height="780.000000pt" viewBox="0 0 3540.000000 780.000000"
 preserveAspectRatio="xMidYMid meet">
<metadata>
Created by potrace 1.16, written by Peter Selinger 2001-2019
</metadata>
<g transform="translate(0.000000,780.000000) scale(0.100000,-0.100000)"
fill="#000000" stroke="none">
<path d="M1220 6520 l0 -800 2873 0 c1655 -1 2927 -5 3002 -10 153 -11 224
-27 323 -76 126 -61 208 -166 250 -317 16 -57 17 -166 17 -1432 0 -1266 -1
-1375 -17 -1432 -42 -151 -124 -256 -250 -317 -98 -48 -169 -65 -318 -76 -72
-5 -979 -10 -2122 -10 l-1998 0 0 1370 0 1370 -880 0 -880 0 0 -2170 0 -2170
3013 0 c2625 0 3029 2 3141 15 606 71 1120 321 1526 741 308 319 488 691 544
1122 14 108 16 303 16 1557 0 1254 -2 1449 -16 1557 -56 431 -236 803 -544
1122 -406 420 -920 670 -1526 741 -112 13 -516 15 -3141 15 l-3013 0 0 -800z" fill="#cc0000"/>
<path d="M13120 3885 l0 -3435 880 0 880 0 0 1320 0 1320 2245 0 2245 0 0
-1320 0 -1320 885 0 885 0 0 3435 0 3435 -885 0 -885 0 0 -1315 0 -1315 -2245
0 -2245 0 0 1315 0 1315 -880 0 -880 0 0 -3435z" fill="#cc0000"/>
<path d="M24810 3885 l0 -3435 880 0 880 0 0 1120 0 1120 2854 0 c2498 0 2869
2 2971 15 600 79 1069 385 1440 940 195 292 310 603 367 1000 21 143 17 600
-6 750 -57 374 -179 693 -381 995 -359 536 -826 837 -1420 915 -102 13 -566
15 -3851 15 l-3734 0 0 -3435z m7315 1825 c120 -18 192 -76 251 -205 111 -241
110 -774 -2 -1011 -54 -115 -134 -177 -249 -194 -46 -6 -1029 -10 -2812 -10
l-2743 0 0 715 0 715 2743 0 c1783 0 2766 -4 2812 -10z" fill="#cc0000"/>
</g>
</svg>
